<?xml version="1.0" encoding="UTF-8" standalone="no"?>
<!DOCTYPE svg PUBLIC "-//W3C//DTD SVG 1.1//EN" "http://www.w3.org/Graphics/SVG/1.1/DTD/svg11.dtd">
<svg width="100%" height="100%" viewBox="0 0 1140 214" version="1.1" xmlns="http://www.w3.org/2000/svg" xmlns:xlink="http://www.w3.org/1999/xlink" xml:space="preserve" xmlns:serif="http://www.serif.com/" style="fill-rule:evenodd;clip-rule:evenodd;stroke-linejoin:round;stroke-miterlimit:2;">
    <g transform="matrix(1,0,0,1,-246,10)">
        <path d="M328.5467,91.3333C337.1333,91.3333 343.7267,89.34 348.3267,85.3533C352.9267,81.3667 355.2267,75.2844 355.2267,67.1067C355.2267,59.3378 352.8244,53.3578 348.02,49.1667C343.2156,44.9756 336.2133,42.88 327.0133,42.88C323.7422,42.88 321.0333,42.9311 318.8867,43.0333C316.74,43.1356 314.5422,43.3911 312.2933,43.8L312.2933,91.3333L328.5467,91.3333ZM312.6,189.7733C310.3511,190.3867 306.8244,191 302.02,191.6133C297.2156,192.2267 292.4622,192.5333 287.76,192.5333C283.0578,192.5333 278.9178,192.1756 275.34,191.46C271.7622,190.7444 268.7467,189.4667 266.2933,187.6267C263.84,185.7867 262,183.2311 260.7733,179.96C259.5467,176.6889 258.9333,172.3956 258.9333,167.08L258.9333,22.64C258.9333,18.3467 260.1089,15.0244 262.46,12.6733C264.8111,10.3222 268.0311,8.4311 272.12,7C279.0711,4.5467 286.9933,2.7578 295.8867,1.6333C304.78,0.5089 313.7244,-0.0533 322.72,-0.0533C350.9333,-0.0533 372.5022,5.9778 387.4267,18.04C402.3511,30.1022 409.8133,46.4578 409.8133,67.1067C409.8133,77.1244 408.2289,86.1711 405.06,94.2467C401.8911,102.3222 397.1889,109.2733 390.9533,115.1C384.7178,120.9267 376.8467,125.4244 367.34,128.5933C357.8333,131.7622 346.8444,133.3467 334.3733,133.3467L312.6,133.3467L312.6,189.7733Z" style="fill:rgb(92,184,92);fill-rule:nonzero;"/>
        <path d="M415.7733,109.9333C415.7733,96.0667 417.9511,83.8 422.3067,73.1333C426.6622,62.4667 432.6178,53.5333 440.1733,46.3333C447.7289,39.1333 456.6178,33.6667 466.84,29.9333C477.0622,26.2 488.1289,24.3333 500.04,24.3333C511.9511,24.3333 523.0178,26.2 533.24,29.9333C543.4622,33.6667 552.3956,39.1333 560.04,46.3333C567.6844,53.5333 573.6844,62.4667 578.04,73.1333C582.3956,83.8 584.5733,96.0667 584.5733,109.9333C584.5733,123.8 582.44,136.1111 578.1733,146.8667C573.9067,157.6222 567.9956,166.6 560.44,173.8C552.8844,181 543.9511,186.4667 533.64,190.2C523.3289,193.9333 512.1289,195.8 500.04,195.8C487.9511,195.8 476.7511,193.8889 466.44,190.0667C456.1289,186.2444 447.24,180.6889 439.7733,173.4C432.3067,166.1111 426.44,157.1333 422.1733,146.4667C417.9067,135.8 415.7733,123.6222 415.7733,109.9333ZM463.7733,109.9333C463.7733,126.1111 467.0622,138.2 473.64,146.2C480.2178,154.2 489.0178,158.2 500.04,158.2C511.24,158.2 520.1289,154.2 526.7067,146.2C533.2844,138.2 536.5733,126.1111 536.5733,109.9333C536.5733,93.9333 533.3289,81.9333 526.84,73.9333C520.3511,65.9333 511.5067,61.9333 500.3067,61.9333C489.2844,61.9333 480.44,65.8889 473.7733,73.8C467.1067,81.7111 463.7733,93.7556 463.7733,109.9333Z" style="fill:rgb(92,184,92);fill-rule:nonzero;"/>
        <path d="M584.84,66.7333C583.5956,64.7778 582.44,62.1111 581.3733,58.7333C580.3067,55.3556 579.7733,51.8 579.7733,48.0667C579.7733,41.1333 581.3289,36.1556 584.44,33.1333C587.5511,30.1111 591.5956,28.6 596.5733,28.6L712.84,28.6C714.0844,30.5556 715.24,33.2222 716.3067,36.6C717.3733,39.9778 717.9067,43.5333 717.9067,47.2667C717.9067,54.2 716.3511,59.1778 713.24,62.2C710.1289,65.2222 706.0844,66.7333 701.1067,66.7333L671.5067,66.7333L671.5067,189.9333C669.5511,190.4667 666.4844,191 662.3067,191.5333C658.1289,192.0667 653.9956,192.3333 649.9067,192.3333C645.8178,192.3333 642.2178,192.0222 639.1067,191.4C635.9956,190.7778 633.3733,189.6667 631.24,188.0667C629.1067,186.4667 627.5067,184.2444 626.44,181.4C625.3733,178.5556 624.84,174.8222 624.84,170.2L624.84,66.7333L584.84,66.7333Z" style="fill:rgb(92,184,92);fill-rule:nonzero;"/>
        <path d="M821.52,117.0933C812.5244,114.0267 804.3467,110.9089 796.9867,107.74C789.6267,104.5711 783.2889,100.7378 777.9733,96.24C772.6578,91.7422 768.5178,86.3756 765.5533,80.14C762.5889,73.9044 761.1067,66.2889 761.1067,57.2933C761.1067,39.9156 767.8022,26.0133 781.1933,15.5867C794.5844,5.16 813.3422,-0.0533 837.4667,-0.0533C846.2578,-0.0533 854.4356,0.56 862,1.7867C869.5644,3.0133 876.0556,4.9044 881.4733,7.46C886.8911,10.0156 891.1333,13.2867 894.2,17.2733C897.2667,21.26 898.8,25.9111 898.8,31.2267C898.8,36.5422 897.5733,41.0911 895.12,44.8733C892.6667,48.6556 889.7022,51.8756 886.2267,54.5333C881.7289,51.6711 875.6978,49.1667 868.1333,47.02C860.5689,44.8733 852.2889,43.8 843.2933,43.8C834.0933,43.8 827.3467,45.0778 823.0533,47.6333C818.76,50.1889 816.6133,53.4089 816.6133,57.2933C816.6133,60.36 817.9422,62.8644 820.6,64.8067C823.2578,66.7489 827.2444,68.5378 832.56,70.1733L848.8133,75.3867C868.0311,81.52 882.8022,89.34 893.1267,98.8467C903.4511,108.3533 908.6133,121.2844 908.6133,137.64C908.6133,155.0178 901.7644,169.0733 888.0667,179.8067C874.3689,190.54 854.2311,195.9067 827.6533,195.9067C818.2489,195.9067 809.5089,195.14 801.4333,193.6067C793.3578,192.0733 786.3044,189.8244 780.2733,186.86C774.2422,183.8956 769.54,180.2156 766.1667,175.82C762.7933,171.4244 761.1067,166.3644 761.1067,160.64C761.1067,154.7111 762.8444,149.6511 766.32,145.46C769.7956,141.2689 773.5778,138.0489 777.6667,135.8C783.3911,140.2978 790.3933,144.1822 798.6733,147.4533C806.9533,150.7244 816,152.36 825.8133,152.36C835.8311,152.36 842.8844,150.8267 846.9733,147.76C851.0622,144.6933 853.1067,141.1156 853.1067,137.0267C853.1067,132.9378 851.4711,129.82 848.2,127.6733C844.9289,125.5267 840.3289,123.4311 834.4,121.3867L821.52,117.0933Z" style="fill:rgb(92,184,92);fill-rule:nonzero;"/>
        <path d="M984.64,104.3333C992.1067,104.3333 997.84,102.6 1001.84,99.1333C1005.84,95.6667 1007.84,90.3778 1007.84,83.2667C1007.84,76.5111 1005.7511,71.3111 1001.5733,67.6667C997.3956,64.0222 991.3067,62.2 983.3067,62.2C980.4622,62.2 978.1067,62.2444 976.24,62.3333C974.3733,62.4222 972.4622,62.6444 970.5067,63L970.5067,104.3333L984.64,104.3333ZM970.7733,189.9333C968.8178,190.4667 965.7511,191 961.5733,191.5333C957.3956,192.0667 953.2622,192.3333 949.1733,192.3333C945.0844,192.3333 941.4844,192.0222 938.3733,191.4C935.2622,190.7778 932.64,189.6667 930.5067,188.0667C928.3733,186.4667 926.7733,184.2444 925.7067,181.4C924.64,178.5556 924.1067,174.8222 924.1067,170.2L924.1067,44.6C924.1067,40.8667 925.1289,37.9778 927.1733,35.9333C929.2178,33.8889 932.0178,32.2444 935.5733,31C941.6178,28.8667 948.5067,27.3111 956.24,26.3333C963.9733,25.3556 971.7511,24.8667 979.5733,24.8667C1004.1067,24.8667 1022.8622,30.1111 1035.84,40.6C1048.8178,51.0889 1055.3067,65.3111 1055.3067,83.2667C1055.3067,91.9778 1053.9289,99.8444 1051.1733,106.8667C1048.4178,113.8889 1044.3289,119.9333 1038.9067,125C1033.4844,130.0667 1026.64,133.9778 1018.3733,136.7333C1010.1067,139.4889 1000.5511,140.8667 989.7067,140.8667L970.7733,140.8667L970.7733,189.9333Z" style="fill:rgb(92,184,92);fill-rule:nonzero;"/>
        <path d="M1062.7733,109.9333C1062.7733,96.0667 1064.9511,83.8 1069.3067,73.1333C1073.6622,62.4667 1079.6178,53.5333 1087.1733,46.3333C1094.7289,39.1333 1103.6178,33.6667 1113.84,29.9333C1124.0622,26.2 1135.1289,24.3333 1147.04,24.3333C1158.9511,24.3333 1170.0178,26.2 1180.24,29.9333C1190.4622,33.6667 1199.3956,39.1333 1207.04,46.3333C1214.6844,53.5333 1220.6844,62.4667 1225.04,73.1333C1229.3956,83.8 1231.5733,96.0667 1231.5733,109.9333C1231.5733,123.8 1229.44,136.1111 1225.1733,146.8667C1220.9067,157.6222 1214.9956,166.6 1207.44,173.8C1199.8844,181 1190.9511,186.4667 1180.64,190.2C1170.3289,193.9333 1159.1289,195.8 1147.04,195.8C1134.9511,195.8 1123.7511,193.8889 1113.44,190.0667C1103.1289,186.2444 1094.24,180.6889 1086.7733,173.4C1079.3067,166.1111 1073.44,157.1333 1069.1733,146.4667C1064.9067,135.8 1062.7733,123.6222 1062.7733,109.9333ZM1110.7733,109.9333C1110.7733,126.1111 1114.0622,138.2 1120.64,146.2C1127.2178,154.2 1136.0178,158.2 1147.04,158.2C1158.24,158.2 1167.1289,154.2 1173.7067,146.2C1180.2844,138.2 1183.5733,126.1111 1183.5733,109.9333C1183.5733,93.9333 1180.3289,81.9333 1173.84,73.9333C1167.3511,65.9333 1158.5067,61.9333 1147.3067,61.9333C1136.2844,61.9333 1127.44,65.8889 1120.7733,73.8C1114.1067,81.7111 1110.7733,93.7556 1110.7733,109.9333Z" style="fill:rgb(92,184,92);fill-rule:nonzero;"/>
        <path d="M1233.9733,66.7333C1232.7289,64.7778 1231.5733,62.1111 1230.5067,58.7333C1229.44,55.3556 1228.9067,51.8 1228.9067,48.0667C1228.9067,41.1333 1230.4622,36.1556 1233.5733,33.1333C1236.6844,30.1111 1240.7289,28.6 1245.7067,28.6L1361.9733,28.6C1363.2178,30.5556 1364.3733,33.2222 1365.44,36.6C1366.5067,39.9778 1367.04,43.5333 1367.04,47.2667C1367.04,54.2 1365.4844,59.1778 1362.3733,62.2C1359.2622,65.2222 1355.2178,66.7333 1350.24,66.7333L1320.64,66.7333L1320.64,189.9333C1318.6844,190.4667 1315.6178,191 1311.44,191.5333C1307.2622,192.0667 1303.1289,192.3333 1299.04,192.3333C1294.9511,192.3333 1291.3511,192.0222 1288.24,191.4C1285.1289,190.7778 1282.5067,189.6667 1280.3733,188.0667C1278.24,186.4667 1276.64,184.2444 1275.5733,181.4C1274.5067,178.5556 1273.9733,174.8222 1273.9733,170.2L1273.9733,66.7333L1233.9733,66.7333Z" style="fill:rgb(92,184,92);fill-rule:nonzero;"/>
    </g>
</svg>
